<svg width="358" height="358" viewBox="0 0 358 358" fill="none" xmlns="http://www.w3.org/2000/svg">
<rect x="1" y="1" width="356" height="356" rx="178" fill="#2B2B2B"/>
<rect x="1" y="1" width="356" height="356" rx="178" stroke="#BCB2A3" stroke-width="2"/>
<path d="M231.66 251.391C222.871 251.391 217.858 251.26 216.621 251C215.384 250.74 214.342 249.796 213.496 248.168C206.074 233.52 198.62 218.839 191.133 204.125C179.349 180.492 173.457 167.113 173.457 163.988C173.457 158.845 173.62 151.13 173.945 140.844C174.336 130.492 174.531 122.745 174.531 117.602C174.531 115.193 175.182 113.988 176.484 113.988C180.391 113.988 186.315 114.151 194.258 114.477C202.201 114.802 208.158 114.965 212.129 114.965C213.757 114.965 214.57 115.648 214.57 117.016C214.57 122.289 214.18 130.232 213.398 140.844C212.682 151.391 212.324 159.301 212.324 164.574C212.324 168.611 218.932 183.031 232.148 207.836C235.729 201.391 239.798 193.48 244.355 184.105C250.475 171.475 253.535 163.728 253.535 160.863C253.535 156.111 253.47 148.982 253.34 139.477C253.21 129.906 253.145 122.745 253.145 117.992C253.145 116.234 253.438 115.258 254.023 115.062C254.023 115.062 255.065 115.062 257.148 115.062C260.729 115.062 266.133 114.9 273.359 114.574C280.651 114.184 286.087 113.988 289.668 113.988C291.621 113.988 292.598 114.77 292.598 116.332C292.598 121.345 292.5 128.93 292.305 139.086C292.174 149.177 292.109 156.762 292.109 161.84C292.109 165.876 285.697 180.72 272.871 206.371C267.793 215.616 260.469 229.548 250.898 248.168C250.247 249.6 249.792 250.414 249.531 250.609C249.336 250.74 248.522 250.87 247.09 251C243.77 251.26 238.626 251.391 231.66 251.391Z" fill="white"/>
<path d="M67.5 252V112H174.9C189.567 112 200.567 115.333 207.9 122C215.367 128.533 219.1 137.267 219.1 148.2C219.1 153.667 217.967 158.867 215.7 163.8C213.433 168.6 209.633 172.733 204.3 176.2C199.1 179.667 191.967 182.067 182.9 183.4V187.4C191.967 188.733 199.1 190.667 204.3 193.2C209.633 195.733 213.433 199.2 215.7 203.6C217.967 208 219.1 213.733 219.1 220.8V252H161.9V226.6C161.9 217.267 157.233 212.6 147.9 212.6H124.7V252H67.5ZM124.7 172.2H154.1C156.633 172.2 158.633 171.4 160.1 169.8C161.567 168.067 162.3 165.933 162.3 163.4C162.3 160.733 161.567 158.6 160.1 157C158.633 155.4 156.633 154.6 154.1 154.6H124.7V172.2Z" fill="#C4BBAD"/>
</svg>
